<?xml version="1.0" encoding="UTF-8" standalone="no"?>
<!-- Created with Inkscape (http://www.inkscape.org/) -->

<svg
   width="32"
   height="32"
   viewBox="0 0 32 32"
   version="1.1"
   id="svg1"
   inkscape:version="1.4 (86a8ad7, 2024-10-11)"
   sodipodi:docname="carritoClaro.svg"
   xmlns:inkscape="http://www.inkscape.org/namespaces/inkscape"
   xmlns:sodipodi="http://sodipodi.sourceforge.net/DTD/sodipodi-0.dtd"
   xmlns="http://www.w3.org/2000/svg"
   xmlns:svg="http://www.w3.org/2000/svg">
  <sodipodi:namedview
     id="namedview1"
     pagecolor="#ffffff"
     bordercolor="#000000"
     borderopacity="0.25"
     inkscape:showpageshadow="2"
     inkscape:pageopacity="0.0"
     inkscape:pagecheckerboard="0"
     inkscape:deskcolor="#d1d1d1"
     inkscape:document-units="px"
     inkscape:zoom="18.893009"
     inkscape:cx="13.946958"
     inkscape:cy="20.298513"
     inkscape:window-width="1920"
     inkscape:window-height="1057"
     inkscape:window-x="-8"
     inkscape:window-y="-8"
     inkscape:window-maximized="1"
     inkscape:current-layer="layer1" />
  <defs
     id="defs1" />
  <g
     inkscape:label="Capa 1"
     inkscape:groupmode="layer"
     id="layer1">
    <path
       fill="#444444"
       d="M 27.999969,25.813339 V 23.466671 H 9.1999812 L 10.399985,21.120002 28.800023,19.200001 32,6.4000005 H 7.4000201 L 6.0000064,0 H 0 V 2.1333388 H 4.3999785 L 8.5999422,20.053341 6.0000064,25.6 v 3.2 c 0,1.70667 1.4000137,3.2 2.9999618,3.2 1.6000278,0 3.0000408,-1.49333 3.0000408,-3.2 0,-1.706662 -1.400013,-3.2 -3.0000408,-3.2 H 24.000019 v 3.2 c 0,1.70667 1.399937,3.2 2.999961,3.2 1.600029,0 3.000042,-1.49333 3.000042,-3.2 0,-1.493331 -0.80005,-2.56 -2.000053,-2.986661 z M 7.9999829,8.5333391 H 29.399983 l -2.199988,8.5333319 -16.80001,1.92 z"
       id="path2"
       style="fill:#ffd5f6;stroke-width:2.06559" />
  </g>
</svg>
