<?xml version="1.0" encoding="UTF-8" standalone="no"?>
<!-- Created with Inkscape (http://www.inkscape.org/) -->

<svg
   width="32"
   height="32"
   viewBox="0 0 32 32"
   version="1.1"
   id="svg1"
   inkscape:version="1.4 (86a8ad7, 2024-10-11)"
   sodipodi:docname="carritoOscuro.svg"
   xmlns:inkscape="http://www.inkscape.org/namespaces/inkscape"
   xmlns:sodipodi="http://sodipodi.sourceforge.net/DTD/sodipodi-0.dtd"
   xmlns="http://www.w3.org/2000/svg"
   xmlns:svg="http://www.w3.org/2000/svg">
  <sodipodi:namedview
     id="namedview1"
     pagecolor="#ffffff"
     bordercolor="#000000"
     borderopacity="0.25"
     inkscape:showpageshadow="2"
     inkscape:pageopacity="0.0"
     inkscape:pagecheckerboard="0"
     inkscape:deskcolor="#d1d1d1"
     inkscape:document-units="px"
     inkscape:zoom="26.71875"
     inkscape:cx="16"
     inkscape:cy="16"
     inkscape:window-width="1920"
     inkscape:window-height="1057"
     inkscape:window-x="-8"
     inkscape:window-y="-8"
     inkscape:window-maximized="1"
     inkscape:current-layer="layer1" />
  <defs
     id="defs1" />
  <g
     inkscape:label="Capa 1"
     inkscape:groupmode="layer"
     id="layer1">
    <path
       fill="#444444"
       d="M 27.999971,25.813339 V 23.466672 H 9.199981 l 1.200001,-2.34667 18.40004,-1.92 L 32,6.4000009 H 7.400018 L 6.000005,-2.1439304e-8 H 0 V 2.1333393 H 4.399978 L 8.599944,20.053341 6.000005,25.6 v 3.2 c 0,1.706669 1.400013,3.2 2.999964,3.2 1.600027,0 3.00004,-1.493331 3.00004,-3.2 0,-1.706661 -1.400013,-3.2 -3.00004,-3.2 h 15.000049 v 3.2 c 0,1.706669 1.399939,3.2 2.999964,3.2 1.600027,0 3.000041,-1.493331 3.000041,-3.2 0,-1.493332 -0.800051,-2.56 -2.000052,-2.986661 z M 7.999981,8.5333397 h 21.400003 l -2.199988,8.5333313 -16.800014,1.92 z"
       id="path1"
       style="fill:#aaaaff;stroke-width:2.06559" />
  </g>
</svg>
