<?xml version="1.0" encoding="UTF-8" standalone="no"?>
<!-- Created with Inkscape (http://www.inkscape.org/) -->

<svg
   width="32"
   height="32"
   viewBox="0 0 32 32"
   version="1.1"
   id="svg1"
   inkscape:version="1.4 (86a8ad7, 2024-10-11)"
   sodipodi:docname="añadirOscuro.svg"
   xmlns:inkscape="http://www.inkscape.org/namespaces/inkscape"
   xmlns:sodipodi="http://sodipodi.sourceforge.net/DTD/sodipodi-0.dtd"
   xmlns="http://www.w3.org/2000/svg"
   xmlns:svg="http://www.w3.org/2000/svg">
  <sodipodi:namedview
     id="namedview1"
     pagecolor="#ffffff"
     bordercolor="#000000"
     borderopacity="0.25"
     inkscape:showpageshadow="2"
     inkscape:pageopacity="0.0"
     inkscape:pagecheckerboard="0"
     inkscape:deskcolor="#d1d1d1"
     inkscape:document-units="px"
     inkscape:zoom="26.71875"
     inkscape:cx="16"
     inkscape:cy="16"
     inkscape:window-width="1920"
     inkscape:window-height="1057"
     inkscape:window-x="-8"
     inkscape:window-y="-8"
     inkscape:window-maximized="1"
     inkscape:current-layer="layer1" />
  <defs
     id="defs1" />
  <g
     inkscape:label="Capa 1"
     inkscape:groupmode="layer"
     id="layer1">
    <g
       id="g2"
       transform="scale(2.1333333)"
       style="fill:#afe9c6">
      <path
         d="M 7.5,0 C 3.364,0 0,3.364 0,7.5 0,11.636 3.364,15 7.5,15 11.636,15 15,11.636 15,7.5 15,3.364 11.636,0 7.5,0 Z m 0,14 C 3.916,14 1,11.084 1,7.5 1,3.916 3.916,1 7.5,1 11.084,1 14,3.916 14,7.5 14,11.084 11.084,14 7.5,14 Z"
         id="path1-2"
         style="fill:#afe9c6" />
      <polygon
         points="7,3.5 7,7 3.5,7 3.5,8 7,8 7,11.5 8,11.5 8,8 11.5,8 11.5,7 8,7 8,3.5 "
         id="polygon1"
         style="fill:#afe9c6" />
    </g>
  </g>
</svg>
