<svg
            xmlns="http://www.w3.org/2000/svg"
            width="32"
            height="32"
            fill="currentColor"
            className="bi bi-instagram"
            viewBox="0 0 16 16"
          >
            <path d="M8 0C5.829 0 5.556.01 4.703.048 3.85.088 3.269.222 2.76.42a3.9 3.9 0 0 0-1.417.923A3.9 3.9 0 0 0 .42 2.76C.222 3.268.087 3.85.048 4.7.01 5.555 0 5.827 0 8.001c0 2.172.01 2.444.048 3.297.04.852.174 1.433.372 1.942.205.526.478.972.923 1.417.444.445.89.719 1.416.923.51.198 1.09.333 1.942.372C5.555 15.99 5.827 16 8 16s2.444-.01 3.298-.048c.851-.04 1.432-.174 1.942-.372a3.898 3.898 0 0 0 1.417-.923 3.9 3.9 0 0 0 .923-1.417c.198-.509.333-1.09.372-1.942.038-.853.048-1.125.048-3.297 0-2.172-.01-2.444-.048-3.297-.04-.852-.174-1.433-.372-1.942a3.9 3.9 0 0 0-.923-1.417 3.9 3.9 0 0 0-1.417-.923c-.51-.198-1.09-.333-1.942-.372C10.444.01 10.172 0 8 0zm0 1.439c2.134 0 2.378.008 3.22.046.776.034 1.2.162 1.48.27a2.455 2.455 0 0 1 .886.58c.248.249.429.555.58.885.11.28.236.704.27 1.48.038.842.045 1.087.045 3.221 0 2.134-.008 2.379-.045 3.22-.034.776-.16 1.2-.27 1.48a2.448 2.448 0 0 1-.58.885 2.45 2.45 0 0 1-.885.58c-.28.11-.705.236-1.48.27-.842.038-1.087.045-3.22.045-2.135 0-2.38-.007-3.221-.045-.777-.034-1.2-.16-1.48-.27a2.448 2.448 0 0 1-.885-.58 2.45 2.45 0 0 1-.58-.885c-.11-.28-.236-.705-.27-1.48-.038-.841-.046-1.086-.046-3.22 0-2.134.008-2.378.046-3.22.034-.776.16-1.2.27-1.48a2.455 2.455 0 0 1 .58-.885 2.453 2.453 0 0 1 .885-.58c.28-.11.705-.236 1.48-.27.842-.038 1.087-.045 3.221-.045zM8 3.838a4.163 4.163 0 1 0 0 8.326 4.163 4.163 0 0 0 0-8.326zm0 6.87a2.708 2.708 0 1 1 0-5.416 2.708 2.708 0 0 1 0 5.416zm4.406-6.845a.97.97 0 1 0 0 1.939.97.97 0 0 0 0-1.94z" />
          </svg>