<svg
            xmlns="http://www.w3.org/2000/svg"
            width="32"
            height="32"
            fill="currentColor"
            className="bi bi-twitter"
            viewBox="0 0 16 16"
          >
            <path d="M5.026 15c6.038 0 9.341-5.003 9.341-9.334 0-.14 0-.282-.007-.422A6.67 6.67 0 0 0 16 3.542a6.557 6.557 0 0 1-1.889.518 3.295 3.295 0 0 0 1.444-1.817 6.573 6.573 0 0 1-2.084.797A3.283 3.283 0 0 0 7.88 6.03 9.325 9.325 0 0 1 1.11 2.1 3.283 3.283 0 0 0 2.13 7.86a3.203 3.203 0 0 1-1.487-.41v.041a3.283 3.283 0 0 0 2.632 3.218 3.203 3.203 0 0 1-.865.115c-.212 0-.418-.02-.615-.058a3.283 3.283 0 0 0 3.067 2.279A6.588 6.588 0 0 1 .78 13.58 6.32 6.32 0 0 1 0 13.545a9.344 9.344 0 0 0 5.026 1.465" />
          </svg>